<?xml version="1.0" encoding="UTF-8" standalone="no"?>
<!-- Created with Inkscape (http://www.inkscape.org/) -->

<svg
   xmlns:dc="http://purl.org/dc/elements/1.1/"
   xmlns:cc="http://creativecommons.org/ns#"
   xmlns:rdf="http://www.w3.org/1999/02/22-rdf-syntax-ns#"
   xmlns:svg="http://www.w3.org/2000/svg"
   xmlns="http://www.w3.org/2000/svg"
   xmlns:sodipodi="http://sodipodi.sourceforge.net/DTD/sodipodi-0.dtd"
   xmlns:inkscape="http://www.inkscape.org/namespaces/inkscape"
   width="132.24126mm"
   height="255.61269mm"
   viewBox="0 0 468.57142 905.71424"
   id="svg4232"
   version="1.1"
   inkscape:version="0.91 r13725"
   sodipodi:docname="222-1022 Soccer Goal Keeper.svg"
   inkscape:export-filename="D:\0. Vexagrafi\paid vector\222-1022 Soccer Goal Keeper.png"
   inkscape:export-xdpi="190.72867"
   inkscape:export-ydpi="190.72867">
  <defs
     id="defs4234" />
  <sodipodi:namedview
     id="base"
     pagecolor="#0000ffff"
     bordercolor="#666666"
     borderopacity="1.0"
     inkscape:pageopacity="0.0"
     inkscape:pageshadow="2"
     inkscape:zoom="0.35"
     inkscape:cx="-178.17934"
     inkscape:cy="420.64343"
     inkscape:document-units="px"
     inkscape:current-layer="layer1"
     showgrid="false"
     fit-margin-top="0"
     fit-margin-left="0"
     fit-margin-right="0"
     fit-margin-bottom="0"
     inkscape:window-width="1366"
     inkscape:window-height="706"
     inkscape:window-x="-8"
     inkscape:window-y="-8"
     inkscape:window-maximized="1" />
  <metadata
     id="metadata4237">
    <rdf:RDF>
      <cc:Work
         rdf:about="">
        <dc:format>image/svg+xml</dc:format>
        <dc:type
           rdf:resource="http://purl.org/dc/dcmitype/StillImage" />
        <dc:title></dc:title>
      </cc:Work>
    </rdf:RDF>
  </metadata>
  <g
     inkscape:label="Layer 1"
     inkscape:groupmode="layer"
     id="layer1"
     transform="translate(-117.46505,-47.29142)">
    <g
       id="g4944">
      <rect
         ry="0.123809"
         y="47.291359"
         x="117.46505"
         height="905.71429"
         width="468.57144"
         id="rect4942"
         style="opacity:1;fill:#0B0F19;fill-opacity:1;fill-rule:evenodd;stroke:none;stroke-width:24.23999977;stroke-miterlimit:4;stroke-dasharray:none;stroke-dashoffset:0;stroke-opacity:0.99479167" />
      <path
         sodipodi:nodetypes="cccccccccccccccccc"
         inkscape:connector-curvature="0"
         id="path4725-1"
         d="m 439.23365,78.079124 c 2.72868,-1.159974 24.10385,-1.921445 28.98513,0.599865 17.43161,51.830651 18.1731,72.272431 -15.78864,152.960111 -1.12653,-9.63324 -1.7067,-17.34858 -0.29905,-32.87826 -3.02608,11.37459 -4.08593,25.55244 -12.40731,36.4227 0.74892,-4.39364 0.2527,-16.0841 -0.9544,-24.66922 -2.26976,6.56292 -3.95965,20.63196 -10.06118,27.45041 1.28371,-3.79901 0.32459,-7.27081 -0.0544,-11.06982 l -20.21743,18.15466 c -9.37517,-11.15271 -26.39556,-22.37213 -29.58882,-36.3348 2.25321,5.43 6.80323,21.65913 9.70845,26.85777 -6.59332,-6.62457 -14.84327,-23.89818 -19.64597,-32.32041 2.03963,6.99202 3.39847,20.52525 9.51662,28.53695 -11.04615,-6.78731 -21.54858,-27.59944 -25.67087,-35.36972 1.8685,7.22758 4.90221,22.41622 8.60111,33.71376 C 331.23748,196.01508 325.06918,152.00944 330.9335,97.274131 358.47343,68.946677 400.56099,53.923838 439.23372,78.079124 Z"
         style="fill:#333333;stroke:none" />
      <ellipse
         ry="28.697001"
         rx="71.611687"
         cy="1189.8904"
         cx="-606.71582"
         transform="matrix(0.9967529,-0.0805212,0.69692143,0.71714749,0,0)"
         id="ellipse6954"
         style="fill:#e6e6e6;stroke:none"
         inkscape:export-xdpi="144.46902"
         inkscape:export-ydpi="144.46902" />
      <ellipse
         inkscape:export-ydpi="144.46902"
         inkscape:export-xdpi="144.46902"
         style="fill:#e6e6e6;stroke:none"
         id="ellipse4835-3"
         transform="matrix(0.99802629,-0.06279752,0.78029831,0.6254075,0,0)"
         cx="-656.50458"
         cy="1363.1527"
         rx="156.36732"
         ry="56.037178" />
      <path
         inkscape:export-ydpi="144.46902"
         inkscape:export-xdpi="144.46902"
         sodipodi:nodetypes="cccccccccccccc"
         inkscape:connector-curvature="0"
         id="path3612-0-7-9-4"
         d="m 395.88919,207.0299 26.15346,-6.36589 c -2.34807,21.01129 -1.2172,33.41369 9.30274,43.31147 6.76344,6.36327 58.53423,15.62815 69.56941,18.30224 5.49241,4.91711 7.21222,30.87585 11.06506,47.95161 l -42.5181,0 -123.20611,0 -26.47325,-0.2323 c 0.69225,-5.83295 1.44311,-12.05838 2.26086,-18.7278 2.46777,-14.57026 4.46819,-25.82917 10.51748,-30.84887 6.30886,-1.86519 18.3642,-5.23559 29.96103,-7.44161 13.72842,-1.98562 22.76405,-3.79829 25.31597,-9.97511 4.0686,-9.84772 1.26668,-22.75317 3.83573,-33.16311 z"
         style="fill:#ffe680;fill-opacity:1;stroke:none" />
      <path
         inkscape:export-ydpi="144.46902"
         inkscape:export-xdpi="144.46902"
         sodipodi:nodetypes="cccccc"
         inkscape:connector-curvature="0"
         id="path3614-9-0-4-2"
         d="m 420.26843,209.96008 1.13145,13.4269 c -2.9669,2.48954 -11.05288,6.62125 -15.25061,6.73573 -4.82788,0.13204 -10.84771,-2.75984 -15.12859,-5.89026 l -1.0779,-18.32471 z"
         style="fill:#806600;fill-opacity:0.59895833;stroke:none" />
      <path
         inkscape:export-ydpi="144.46902"
         inkscape:export-xdpi="144.46902"
         sodipodi:nodetypes="cccc"
         inkscape:connector-curvature="0"
         id="path3616-0-8-1-0"
         d="m 340.498,90.446194 128.63352,0 C 465.37314,141.3483 469.08219,201.0417 403.39842,222.77033 348.81512,205.51961 339.0929,144.49729 340.498,90.446194 Z"
         style="fill:#ffe680;stroke:none" />
      <path
         inkscape:export-ydpi="144.46902"
         inkscape:export-xdpi="144.46902"
         sodipodi:nodetypes="cccccccccccc"
         inkscape:connector-curvature="0"
         id="path4399-1-6"
         d="m 309.15767,319.30929 6.31893,6.72469 -71.811,14.61574 -14.78027,-3.6679 -30.85395,-119.60284 -9.07277,-19.98778 5.21649,-9.18481 13.94502,-14.33228 8.59065,30.67904 38.42578,98.14858 37.08222,-16.75341 z"
         style="fill:#ffe680;fill-opacity:1;fill-rule:evenodd;stroke:none;stroke-width:1px;stroke-linecap:butt;stroke-linejoin:miter;stroke-opacity:1" />
      <path
         inkscape:export-ydpi="144.46902"
         inkscape:export-xdpi="144.46902"
         sodipodi:nodetypes="cccccccccc"
         inkscape:connector-curvature="0"
         id="path4401-4-7"
         d="m 513.13952,269.38109 48.02251,105.39605 3.7862,17.38195 -31.33445,57.86288 -45.44623,65.33891 -12.84212,-12.89715 30.58463,-54.18393 22.79306,-59.5501 -36.85926,-75.51541 z"
         style="fill:#ffe680;fill-opacity:1;fill-rule:evenodd;stroke:none;stroke-width:1px;stroke-linecap:butt;stroke-linejoin:miter;stroke-opacity:1" />
      <path
         inkscape:export-ydpi="144.46902"
         inkscape:export-xdpi="144.46902"
         style="fill:#00aad4;fill-opacity:1;stroke:none"
         d="m 413.39341,275.13238 c 15.42966,-7.4332 16.86784,-19.58458 17.95198,-31.1569 6.76344,6.36327 71.72533,15.62815 82.7605,18.30224 5.49241,4.91711 22.92065,41.1356 26.77349,58.21135 -8.33444,23.05382 -19.64339,27.32625 -32.75764,35.60892 l -17.49485,-40.00595 -1.19343,174.71078 c -47.49166,-16.40469 -94.78512,34.22058 -145.79402,0.7027 L 331.59887,325.98536 308.59572,332.819 c -7.133,-5.83295 -32.76449,-39.4338 -28.40421,-46.10322 9.7225,-10.4247 40.45724,-22.37497 46.50652,-27.39467 6.30886,-1.86519 24.22691,-4.13634 35.82374,-6.34236 13.72842,-1.98562 22.51579,-3.54989 25.06757,-9.72671 3.64217,17.40396 9.52735,25.39969 25.80407,31.88049 z"
         id="path3622-7-1-7-3"
         inkscape:connector-curvature="0"
         sodipodi:nodetypes="cccccccccccccccc" />
      <path
         style="fill:#333333;fill-opacity:0.43016758;stroke:none"
         d="m 467.22021,87.330475 c 2.15748,9.992161 -3.95185,9.967191 -8.8048,15.101105 -7.01532,17.99223 -27.74793,15.90089 -47.32568,23.14833 21.74252,-12.74311 27.9422,-16.84776 36.37971,-30.391123 -8.8315,27.418403 -86.15882,19.708943 -115.44005,42.193923 -2.06796,-70.33049 60.82358,-67.24585 135.19082,-50.052235 z"
         id="path4341"
         inkscape:connector-curvature="0"
         sodipodi:nodetypes="cccccc" />
      <path
         inkscape:export-ydpi="144.46902"
         inkscape:export-xdpi="144.46902"
         style="fill:#333333;stroke:none"
         d="m 358.07114,141.83052 c 13.0999,-14.94007 25.47324,-8.65282 33.23944,-0.56829 l 0,4.88395 c -9.15782,-8.04565 -19.15587,-12.508 -33.26512,0.63817 z"
         id="path5538-3-8-4-6"
         inkscape:connector-curvature="0"
         sodipodi:nodetypes="ccccc" />
      <path
         inkscape:export-ydpi="144.46902"
         inkscape:export-xdpi="144.46902"
         style="fill:none;stroke:#000000;stroke-width:1.96733832px;stroke-linecap:butt;stroke-linejoin:miter;stroke-opacity:1"
         d="m 387.74458,193.0641 c 9.43855,6.55726 24.87314,6.73007 33.31678,-1.65364"
         id="path5546-2-0-9-1"
         inkscape:connector-curvature="0"
         sodipodi:nodetypes="cc" />
      <path
         inkscape:export-ydpi="144.46902"
         inkscape:export-xdpi="144.46902"
         style="fill:#ffe680;fill-opacity:1;fill-rule:evenodd;stroke:none"
         d="m 460.07515,150.6184 c 1.44587,-5.21804 7.14954,-5.43147 11.144,-3.30946 2.56919,6.54478 2.29365,12.41502 0.46009,17.91585 -2.38376,7.15157 -7.58743,17.00045 -13.15762,17.34563 -2.41742,-0.75464 -3.8643,1.05324 -5.87561,-3.55279 3.85735,-7.34759 6.04102,-19.49042 7.42914,-28.39923 z"
         id="path3610-6-0-1"
         inkscape:connector-curvature="0"
         sodipodi:nodetypes="ccsccc" />
      <path
         inkscape:export-ydpi="144.46902"
         inkscape:export-xdpi="144.46902"
         sodipodi:nodetypes="ccsccc"
         inkscape:connector-curvature="0"
         id="path3613-8-3-2"
         d="m 347.30599,150.6184 c -1.44573,-5.21804 -7.14954,-5.43147 -11.144,-3.30946 -2.5689,6.54478 -2.29351,12.41502 -0.45995,17.91585 2.38362,7.15157 7.58744,17.00045 13.15762,17.34563 2.41742,-0.75464 3.86416,1.05324 5.87561,-3.55279 -3.85734,-7.34759 -6.04087,-19.49042 -7.42928,-28.39923 z"
         style="fill:#ffe680;fill-opacity:1;fill-rule:evenodd;stroke:none" />
      <circle
         inkscape:export-ydpi="144.46902"
         inkscape:export-xdpi="144.46902"
         r="66.962303"
         cy="840.34052"
         cx="209.15605"
         style="fill:#ffcb00;fill-opacity:1;stroke:none"
         id="path4258-0-0-8" />
      <circle
         inkscape:export-ydpi="144.46902"
         inkscape:export-xdpi="144.46902"
         r="65.906975"
         cy="840.34052"
         cx="209.15605"
         id="path3434-7-3-16"
         style="fill:#1a1a1a;stroke:none" />
      <path
         inkscape:export-ydpi="144.46902"
         inkscape:export-xdpi="144.46902"
         sodipodi:nodetypes="ccccccc"
         inkscape:connector-curvature="0"
         id="path3436-48-2-4"
         d="m 181.69652,827.55127 9.85527,30.61904 -14.29371,20.23722 c -7.32264,-3.37055 -14.64528,-6.60369 -21.96777,-11.13413 -3.08355,-7.77431 -5.53637,-15.8008 -6.62023,-24.37503 2.83036,-6.98311 6.93843,-14.28558 11.36004,-21.66655 z"
         style="fill:#ffcb00;fill-opacity:1;stroke:none" />
      <path
         inkscape:export-ydpi="144.46902"
         inkscape:export-xdpi="144.46902"
         sodipodi:nodetypes="ccccc"
         inkscape:connector-curvature="0"
         id="path3438-7-6-6"
         d="m 143.35744,839.80684 4.46848,3.2449 c 0.5441,7.73137 3.33993,16.26583 6.70294,24.84281 l -1.80875,6.38359 c -5.12678,-9.59613 -9.29593,-20.09634 -9.36267,-34.4713 z"
         style="fill:#ffcb00;fill-opacity:1;stroke:none" />
      <path
         inkscape:export-ydpi="144.46902"
         inkscape:export-xdpi="144.46902"
         style="fill:#ffcb00;fill-opacity:1;stroke:none"
         d="m 192.75898,859.01447 32.37729,0.21256 14.68737,20.27263 c -5.5107,5.8833 -11.31637,12.66125 -17.92762,18.17818 -8.3502,0.47069 -17.48536,0.79498 -25.96295,-0.13929 -5.73182,-4.89114 -12.0018,-11.94608 -17.60855,-18.47229 z"
         id="path3440-5-1-7"
         inkscape:connector-curvature="0"
         sodipodi:nodetypes="ccccccc" />
      <path
         inkscape:export-ydpi="144.46902"
         inkscape:export-xdpi="144.46902"
         style="fill:#ffcb00;fill-opacity:1;stroke:none"
         d="m 189.08765,903.19841 6.72426,-5.02362 c 11.29446,1.45197 17.57648,0.55514 26.53927,0.10302 l 6.54973,4.79596 c -10.19219,3.4296 -26.15304,4.60153 -39.81326,0.12478 z"
         id="path3442-4-7-2"
         inkscape:connector-curvature="0"
         sodipodi:nodetypes="ccccc" />
      <path
         inkscape:export-ydpi="144.46902"
         inkscape:export-xdpi="144.46902"
         sodipodi:nodetypes="ccccccc"
         inkscape:connector-curvature="0"
         id="path3436-4-0-8-1"
         d="m 236.35965,827.75209 -9.85512,30.61918 14.294,20.23707 c 7.32249,-3.37055 14.64498,-6.60369 21.96762,-11.13413 3.0834,-7.77417 5.53623,-15.8008 6.62023,-24.37488 -2.83065,-6.98326 -6.93857,-14.28573 -11.36004,-21.6667 z"
         style="fill:#ffcb00;fill-opacity:1;stroke:none" />
      <path
         inkscape:export-ydpi="144.46902"
         inkscape:export-xdpi="144.46902"
         sodipodi:nodetypes="ccccc"
         inkscape:connector-curvature="0"
         id="path3438-8-9-7-3"
         d="m 274.80523,839.58209 -4.57469,3.67046 c -0.5441,7.73137 -3.33993,16.26583 -6.70294,24.84281 l 1.80861,6.38359 c 5.80117,-9.09033 9.85338,-20.18383 9.46902,-34.89686 z"
         style="fill:#ffcb00;fill-opacity:1;stroke:none" />
      <path
         inkscape:export-ydpi="144.46902"
         inkscape:export-xdpi="144.46902"
         style="fill:#ffcb00;fill-opacity:1;stroke:none"
         d="m 209.76973,807.74049 26.2887,18.72054 21.50999,-6.4895 c -1.35866,-7.94567 -2.25811,-14.03428 -5.37546,-22.59965 -6.7102,-4.99228 -11.70871,-8.91172 -19.29919,-12.80127 -6.4142,0.28656 -15.00135,0.38073 -23.27566,2.73924 z"
         id="path3440-8-3-6-4"
         inkscape:connector-curvature="0"
         sodipodi:nodetypes="ccccccc" />
      <path
         inkscape:export-ydpi="144.46902"
         inkscape:export-xdpi="144.46902"
         style="fill:#ffcb00;fill-opacity:1;stroke:none"
         d="m 230.08546,777.8845 2.73866,5.98182 c 10.22628,5.0091 13.27326,8.31363 20.50464,13.62816 l 6.51228,0.82835 c -6.86109,-7.98906 -16.21012,-16.00714 -29.75558,-20.43833 z"
         id="path3442-2-9-1-8"
         inkscape:connector-curvature="0"
         sodipodi:nodetypes="ccccc" />
      <path
         inkscape:export-ydpi="144.46902"
         inkscape:export-xdpi="144.46902"
         sodipodi:nodetypes="ccccccc"
         inkscape:connector-curvature="0"
         id="path3486-6-0-8"
         d="m 207.9826,807.74049 -26.28883,18.72054 -21.50985,-6.4895 c 1.35852,-7.94567 2.25811,-14.03428 5.37532,-22.59965 6.71019,-4.99228 11.70885,-8.91172 19.29919,-12.80127 6.4142,0.28656 15.00119,0.38073 23.27565,2.73924 z"
         style="fill:#ffcb00;fill-opacity:1;stroke:none" />
      <path
         inkscape:export-ydpi="144.46902"
         inkscape:export-xdpi="144.46902"
         sodipodi:nodetypes="ccccc"
         inkscape:connector-curvature="0"
         id="path3488-5-3-8"
         d="m 187.66702,777.8845 -2.73895,5.98182 c -10.22612,5.0091 -13.27311,8.31363 -20.50477,13.62816 l -6.51229,0.82835 c 6.86138,-7.98906 16.21056,-16.00714 29.75601,-20.43833 z"
         style="fill:#ffcb00;fill-opacity:1;stroke:none" />
      <path
         inkscape:export-ydpi="144.46902"
         inkscape:export-xdpi="144.46902"
         sodipodi:nodetypes="ccccccc"
         inkscape:connector-curvature="0"
         id="path4391-2-5"
         d="m 432.77327,608.80903 20.87172,87.06246 19.86839,156.38331 29.80941,-1.98722 c -1.35228,-54.00307 1.08125,-128.82867 -4.96804,-156.99764 l 0.99346,-90.4227 z"
         style="fill:#ffe680;fill-opacity:1;fill-rule:evenodd;stroke:none;stroke-width:1px;stroke-linecap:butt;stroke-linejoin:miter;stroke-opacity:1" />
      <path
         inkscape:export-ydpi="144.46902"
         inkscape:export-xdpi="144.46902"
         sodipodi:nodetypes="ccccccc"
         inkscape:connector-curvature="0"
         id="path4397-9-7"
         d="m 464.95599,847.39674 4.41668,21.39769 -4.97283,38.44385 51.25861,-0.46155 -8.32713,-38.41207 2.79728,-22.19237 c -15.43096,-6.44046 -31.61206,-4.49402 -45.17261,1.22445 z"
         style="fill:#1a1a1a;fill-rule:evenodd;stroke:none;stroke-width:1px;stroke-linecap:butt;stroke-linejoin:miter;stroke-opacity:1" />
      <path
         style="fill:#ffe680;fill-opacity:1;fill-rule:evenodd;stroke:none;stroke-width:1px;stroke-linecap:butt;stroke-linejoin:miter;stroke-opacity:1"
         d="m 395.8427,608.80903 -20.87172,87.06246 -19.86839,156.38331 -29.80941,-1.98722 c 1.35228,-54.00307 -1.08124,-128.82867 4.96804,-156.99764 l -0.99346,-90.4227 z"
         id="path6942"
         inkscape:connector-curvature="0"
         sodipodi:nodetypes="ccccccc"
         inkscape:export-xdpi="144.46902"
         inkscape:export-ydpi="144.46902" />
      <path
         inkscape:export-ydpi="144.46902"
         inkscape:export-xdpi="144.46902"
         sodipodi:nodetypes="cccccccc"
         inkscape:connector-curvature="0"
         id="path4387-6-6"
         d="m 343.34432,490.564 c 66.81653,6.91492 109.58289,-15.48088 147.30213,-0.29092 10.48106,60.7346 9.63269,124.30158 13.42895,186.70737 l -60.56295,3.37186 -31.60597,-93.40367 -26.87945,94.45589 -60.34623,-4.18022 c 1.90282,-28.22865 6.39678,-164.24391 18.66352,-186.66031 z"
         style="fill:#1a1a1a;fill-rule:evenodd;stroke:none;stroke-width:1px;stroke-linecap:butt;stroke-linejoin:miter;stroke-opacity:1" />
      <path
         inkscape:export-ydpi="144.46902"
         inkscape:export-xdpi="144.46902"
         sodipodi:nodetypes="ccccc"
         inkscape:connector-curvature="0"
         id="path4393-2-1-9"
         d="m 464.09253,898.51185 51.22248,0.50145 c -3.05787,-5.67321 -5.83107,-11.69725 -11.13921,-14.59638 -7.62646,-3.4904 -16.12408,-4.83194 -27.00632,-0.29019 -5.86415,4.50519 -9.75733,9.87978 -13.07695,14.38512 z"
         style="fill:#808080;fill-rule:evenodd;stroke:none;stroke-width:1.10812318px;stroke-linecap:butt;stroke-linejoin:miter;stroke-opacity:1" />
      <rect
         inkscape:export-ydpi="144.46902"
         inkscape:export-xdpi="144.46902"
         ry="0.36002123"
         y="898.50665"
         x="463.54001"
         height="11.283947"
         width="52.488209"
         id="rect4418-6-0-4"
         style="opacity:1;fill:#2b1100;fill-opacity:1;fill-rule:evenodd;stroke:none;stroke-width:1;stroke-miterlimit:4;stroke-dasharray:4, 4;stroke-dashoffset:0;stroke-opacity:0.99479167" />
      <path
         inkscape:export-ydpi="144.46902"
         inkscape:export-xdpi="144.46902"
         sodipodi:nodetypes="ccccc"
         inkscape:connector-curvature="0"
         id="path4422-9-7-6"
         d="m 461.2169,752.65544 41.31135,-1.47967 c 0.22359,33.58274 0.44704,67.07508 0.67063,99.97588 -7.86645,4.24982 -20.70138,5.2855 -30.0581,-0.62101 z"
         style="fill:#aad400;fill-rule:evenodd;stroke:none;stroke-width:1px;stroke-linecap:butt;stroke-linejoin:miter;stroke-opacity:1" />
      <path
         inkscape:export-ydpi="144.46902"
         inkscape:export-xdpi="144.46902"
         inkscape:connector-curvature="0"
         id="path4457-6-1"
         d="m 472.76789,871.13423 8.1977,-3.72618 c 0,0 3.72632,-1.73881 6.21049,-1.49041 2.48402,0.2484 9.43971,2.48402 9.43971,2.48402 l 6.95555,3.97472 -8.94291,-2.73256 -7.2041,-1.24216 -6.707,0.74535 -8.94291,2.48417 z"
         style="fill:#000000;fill-rule:evenodd;stroke:none;stroke-width:1px;stroke-linecap:butt;stroke-linejoin:miter;stroke-opacity:1" />
      <path
         style="fill:#1a1a1a;fill-rule:evenodd;stroke:none;stroke-width:1px;stroke-linecap:butt;stroke-linejoin:miter;stroke-opacity:1"
         d="m 363.65998,847.39674 -4.41668,21.39769 4.97283,38.44385 -51.25861,-0.46155 8.32713,-38.41207 -2.79728,-22.19237 c 15.43096,-6.44046 31.61207,-4.49402 45.17261,1.22445 z"
         id="path6944"
         inkscape:connector-curvature="0"
         sodipodi:nodetypes="ccccccc"
         inkscape:export-xdpi="144.46902"
         inkscape:export-ydpi="144.46902" />
      <path
         style="fill:#808080;fill-rule:evenodd;stroke:none;stroke-width:1.10812318px;stroke-linecap:butt;stroke-linejoin:miter;stroke-opacity:1"
         d="m 364.52344,898.51185 -51.22248,0.50145 c 3.05787,-5.67321 5.83107,-11.69725 11.13921,-14.59638 7.62647,-3.4904 16.12408,-4.83194 27.00632,-0.29019 5.86415,4.50519 9.75733,9.87978 13.07695,14.38512 z"
         id="path6946"
         inkscape:connector-curvature="0"
         sodipodi:nodetypes="ccccc"
         inkscape:export-xdpi="144.46902"
         inkscape:export-ydpi="144.46902" />
      <rect
         transform="scale(-1,1)"
         style="opacity:1;fill:#2b1100;fill-opacity:1;fill-rule:evenodd;stroke:none;stroke-width:1;stroke-miterlimit:4;stroke-dasharray:4, 4;stroke-dashoffset:0;stroke-opacity:0.99479167"
         id="rect6948"
         width="52.488209"
         height="11.283947"
         x="-365.07587"
         y="898.50665"
         ry="0.36002123"
         inkscape:export-xdpi="144.46902"
         inkscape:export-ydpi="144.46902" />
      <path
         style="fill:#aad400;fill-rule:evenodd;stroke:none;stroke-width:1px;stroke-linecap:butt;stroke-linejoin:miter;stroke-opacity:1"
         d="m 367.39907,752.65544 -41.31135,-1.47967 c -0.22359,33.58274 -0.44704,67.07508 -0.67063,99.97588 7.86645,4.24982 20.70138,5.2855 30.0581,-0.62101 z"
         id="path6950"
         inkscape:connector-curvature="0"
         sodipodi:nodetypes="ccccc"
         inkscape:export-xdpi="144.46902"
         inkscape:export-ydpi="144.46902" />
      <path
         style="fill:#000000;fill-rule:evenodd;stroke:none;stroke-width:1px;stroke-linecap:butt;stroke-linejoin:miter;stroke-opacity:1"
         d="m 355.84809,871.13423 -8.19771,-3.72618 c 0,0 -3.72632,-1.73881 -6.21048,-1.49041 -2.48402,0.2484 -9.43972,2.48402 -9.43972,2.48402 l -6.95555,3.97472 8.94291,-2.73256 7.2041,-1.24216 6.707,0.74535 8.94291,2.48417 z"
         id="path6952"
         inkscape:connector-curvature="0"
         inkscape:export-xdpi="144.46902"
         inkscape:export-ydpi="144.46902" />
      <path
         sodipodi:nodetypes="ccccc"
         inkscape:connector-curvature="0"
         id="path7677"
         d="m 447.53027,141.83052 c -13.0999,-14.94007 -25.47324,-8.65282 -33.23945,-0.56829 l 0,4.88395 c 9.15782,-8.04565 19.15588,-12.508 33.26513,0.63817 z"
         style="fill:#333333;stroke:none"
         inkscape:export-xdpi="144.46902"
         inkscape:export-ydpi="144.46902" />
      <path
         sodipodi:nodetypes="ccccccccccccccccccc"
         inkscape:connector-curvature="0"
         id="path7694"
         d="m 218.38581,191.42975 2.50273,-14.68298 17.55117,-16.75881 c -2.19441,-5.22737 -0.64447,-12.91833 -9.84675,-14.44664 l -12.47731,6.5338 L 202.177,112.9716 c -5.59356,-2.78451 -16.34964,-3.91593 -18.88677,0.11738 l 13.45889,35.61475 -20.91111,-39.33253 c -8.61996,-6.94692 -16.58409,-4.18002 -18.7469,6.88838 l 22.13576,37.25064 -24.32614,-33.8187 c -5.92176,0.32392 -12.3425,8.10149 -11.49,13.55751 l 25.19444,32.65898 -22.40514,-25.23755 c -4.9898,2.15242 -6.15032,7.82602 -5.82796,12.57209 l 19.95027,29.0417 23.22278,22.82314 z"
         style="fill:#a05a2c;fill-rule:evenodd;stroke:none;stroke-width:1.12991488px;stroke-linecap:butt;stroke-linejoin:miter;stroke-opacity:1" />
      <path
         inkscape:connector-curvature="0"
         id="path7844"
         d="m 238.48908,160.02673 -17.61865,16.71178 -2.33188,13.73218 -4.14555,1.94324 5.18195,-18.00729 18.26639,-15.41631 z"
         style="fill:#784421;fill-rule:evenodd;stroke:none;stroke-width:1px;stroke-linecap:butt;stroke-linejoin:miter;stroke-opacity:1" />
      <path
         sodipodi:nodetypes="ccccc"
         inkscape:connector-curvature="0"
         id="path7692"
         d="m 191.60668,219.18635 30.02786,-11.64299 -2.24682,-19.25389 -37.07337,14.85395 z"
         style="fill:#1a1a1a;fill-rule:evenodd;stroke:none;stroke-width:1.12991488px;stroke-linecap:butt;stroke-linejoin:miter;stroke-opacity:1" />
      <path
         sodipodi:nodetypes="ccccccccccccccccccc"
         inkscape:connector-curvature="0"
         id="path7694-2"
         d="m 481.16718,474.05312 -14.63995,2.74328 -21.80447,-10.65201 c -4.14231,3.87069 -11.89359,5.08344 -10.13656,14.2448 l 10.45455,9.438 -31.84531,26.63172 c -0.67244,6.21203 1.99559,16.6932 6.65838,17.67456 l 28.73926,-24.97212 -29.64267,33.25109 c -3.52737,10.49386 1.82916,17.00466 12.96088,15.19578 l 27.26532,-33.67796 -23.28681,34.54256 c 2.35696,5.44214 11.87826,8.76805 16.70027,6.07676 l 21.89799,-34.95493 -15.90399,29.76554 c 3.74894,3.93403 9.47297,3.05545 13.8129,1.10757 l 20.32329,-28.78189 13.35585,-29.69536 z"
         style="fill:#a05a2c;fill-rule:evenodd;stroke:none;stroke-width:1.12991488px;stroke-linecap:butt;stroke-linejoin:miter;stroke-opacity:1" />
      <path
         sodipodi:nodetypes="ccccc"
         inkscape:connector-curvature="0"
         id="path7692-5"
         d="m 516.48673,489.54764 -21.33181,-24.1285 -17.2806,8.783 26.78636,29.62373 z"
         style="fill:#1a1a1a;fill-rule:evenodd;stroke:none;stroke-width:1.12991488px;stroke-linecap:butt;stroke-linejoin:miter;stroke-opacity:1" />
      <path
         sodipodi:nodetypes="cccccc"
         inkscape:connector-curvature="0"
         id="path3588"
         d="m 467.19339,82.753479 c 2.2871,10.592476 -4.18926,10.56601 -9.33376,16.008351 -7.4368,19.07316 -29.41497,16.8562 -50.1689,24.53903 23.04875,-13.50869 29.6209,-17.85993 38.56531,-32.216946 -9.36208,29.065626 -91.33505,20.893006 -122.37543,44.728836 -2.1922,-74.555799 95.56944,-81.131547 143.31278,-53.059271 z"
         style="fill:#333333;stroke:none" />
      <path
         sodipodi:nodetypes="ccccc"
         inkscape:connector-curvature="0"
         id="path4745"
         d="m 452.00758,103.62328 c -0.3456,20.38638 2.05419,41.5938 7.15507,61.53363 L 484.94897,112.31337 463.9327,78.342021 Z"
         style="fill:#333333;stroke:none" />
      <path
         style="fill:#333333;stroke:none"
         d="m 350.67905,181.48166 -13.41276,-26.00381 -1.98951,-3.85712 -9.39906,-15.4752 26.87756,-26.84005 c -4.07512,26.75684 -3.50044,50.31385 -2.07623,72.17618 z"
         id="path4747"
         inkscape:connector-curvature="0"
         sodipodi:nodetypes="cccccc" />
      <path
         sodipodi:nodetypes="ccccccc"
         inkscape:connector-curvature="0"
         id="path7840"
         d="m 461.05393,512.24387 -6.47745,-16.81531 16.32315,-5.44105 17.10045,0.25909 -0.7773,16.84136 -8.03202,15.28675 z"
         style="fill:#1a1a1a;fill-rule:evenodd;stroke:none;stroke-width:1px;stroke-linecap:butt;stroke-linejoin:miter;stroke-opacity:1" />
      <path
         sodipodi:nodetypes="ccccccc"
         style="fill:#a05a2c;fill-rule:evenodd;stroke:none;stroke-width:1px;stroke-linecap:butt;stroke-linejoin:miter;stroke-opacity:1"
         d="m 464.55916,509.62635 -5.50858,-12.52196 13.1891,-4.39637 13.81716,0.20935 -1.08607,13.05819 -6.5815,11.61886 z"
         id="path7842"
         inkscape:connector-curvature="0" />
    </g>
  </g>
</svg>
