<?xml version="1.0" encoding="UTF-8" standalone="no"?>
<!-- Created with Inkscape (http://www.inkscape.org/) -->

<svg
   xmlns:dc="http://purl.org/dc/elements/1.1/"
   xmlns:cc="http://creativecommons.org/ns#"
   xmlns:rdf="http://www.w3.org/1999/02/22-rdf-syntax-ns#"
   xmlns:svg="http://www.w3.org/2000/svg"
   xmlns="http://www.w3.org/2000/svg"
   xmlns:sodipodi="http://sodipodi.sourceforge.net/DTD/sodipodi-0.dtd"
   xmlns:inkscape="http://www.inkscape.org/namespaces/inkscape"
   width="94.415428mm"
   height="123.00688mm"
   viewBox="0 0 94.415428 123.00688"
   version="1.1"
   id="svg125"
   inkscape:version="0.92.1 r15371"
   sodipodi:docname="futebol-01.svg">
  <defs
     id="defs119" />
  <sodipodi:namedview
     id="base"
     pagecolor="#ffffff"
     bordercolor="#666666"
     borderopacity="1.0"
     inkscape:pageopacity="0.0"
     inkscape:pageshadow="2"
     inkscape:zoom="0.35"
     inkscape:cx="252.13061"
     inkscape:cy="149.9851"
     inkscape:document-units="mm"
     inkscape:current-layer="layer1"
     showgrid="false"
     fit-margin-top="0"
     fit-margin-left="0"
     fit-margin-right="0"
     fit-margin-bottom="0"
     inkscape:window-width="1600"
     inkscape:window-height="851"
     inkscape:window-x="0"
     inkscape:window-y="0"
     inkscape:window-maximized="1" />
  <metadata
     id="metadata122">
    <rdf:RDF>
      <cc:Work
         rdf:about="">
        <dc:format>image/svg+xml</dc:format>
        <dc:type
           rdf:resource="http://purl.org/dc/dcmitype/StillImage" />
        <dc:title></dc:title>
      </cc:Work>
    </rdf:RDF>
  </metadata>
  <g
     inkscape:label="Camada 1"
     inkscape:groupmode="layer"
     id="layer1"
     transform="translate(-39.123776,-65.510006)">
    <path
       style="fill:#000000;stroke-width:0.51264209"
       d="m 90.522551,183.42395 c -2.647721,-1.80203 -3.729866,-3.62414 -3.945293,-6.64309 -0.25463,-3.56845 1.24825,-6.25186 4.463153,-7.96901 6.023007,-3.21703 13.072399,1.81112 12.152669,8.66817 -0.55717,4.15416 -4.002375,7.09737 -8.307853,7.09737 -1.922814,0 -3.141232,-0.32213 -4.362676,-1.15344 z m -47.090823,-2.81953 c 0.706282,-0.77538 1.677513,-2.04416 2.1583,-2.81953 0.572453,-0.92322 1.312392,-1.40977 2.143933,-1.40977 1.113884,0 1.269796,-0.22444 1.269796,-1.82794 0,-1.00538 0.23066,-2.25895 0.512569,-2.78572 0.281921,-0.52677 0.857736,-2.64548 1.279599,-4.70823 0.766651,-3.74865 2.66912,-8.62058 3.366304,-8.62058 0.20319,0 0.523079,-0.61213 0.710858,-1.36031 0.350405,-1.39614 2.553579,-4.88339 4.808425,-7.61093 0.699261,-0.84586 1.916194,-2.89834 2.704284,-4.56105 1.352912,-2.85436 1.388983,-3.10805 0.646135,-4.54455 l -0.786763,-1.52143 3.556823,-3.49394 c 1.956251,-1.92168 3.942532,-4.30677 4.413959,-5.30023 0.471428,-0.99345 2.810391,-3.60474 5.197695,-5.80284 2.387306,-2.19811 4.342375,-4.38347 4.344599,-4.85637 0.0022,-0.47289 0.824657,-1.53622 1.827627,-2.36295 l 1.823591,-1.50316 -1.100707,-2.11176 c -1.114104,-2.13747 -1.181367,-4.7343 -0.25446,-9.82318 l 0.326815,-1.79425 -1.214087,2.29151 c -0.727733,1.37358 -1.672358,2.40037 -2.358085,2.56322 -1.120788,0.26617 -4.173074,4.20191 -4.173074,5.38092 0,0.32863 -0.807413,1.31233 -1.794255,2.186 -1.454348,1.28758 -1.796859,1.96098 -1.808032,3.55467 -0.0095,1.40142 -0.440237,2.48056 -1.498484,3.75712 -1.510637,1.82226 -2.808789,1.80667 -1.667994,-0.02 0.344155,-0.55107 0.439235,-1.00196 0.211285,-1.00196 -0.849166,0 -1.644793,1.27486 -1.644793,2.63549 0,0.77282 -0.230692,1.54771 -0.512644,1.72197 -0.281962,0.17426 -0.512642,0.7646 -0.512642,1.31185 0,0.54728 -0.222575,0.99504 -0.494608,0.99504 -0.923185,0 -1.640882,-2.13204 -1.666202,-4.94969 -0.02203,-2.45724 0.171651,-3.01142 1.552085,-4.4399 1.020795,-1.05634 1.770706,-2.53658 2.125444,-4.19543 0.85705,-4.00778 1.960266,-6.05002 3.982029,-7.37147 1.672053,-1.09286 1.776419,-1.28541 1.003254,-1.85076 -1.272441,-0.93043 -1.05909,-2.14779 1.115264,-6.363619 2.806143,-5.440773 8.552922,-10.902025 12.119454,-11.517306 6.161738,-1.063002 7.973006,-2.273473 6.141857,-4.104621 -1.069485,-1.069485 -1.88944,-3.92321 -1.33242,-4.63726 0.237068,-0.303909 0.564241,-1.419827 0.727048,-2.479834 0.643667,-4.19073 4.048489,-6.605137 7.838787,-5.558589 3.154063,0.870879 4.310873,2.353404 4.310873,5.524667 0,1.612317 0.22657,2.730163 0.55337,2.730163 0.78196,0 0.0461,3.050791 -1.08323,4.49172 -1.45552,1.856921 -0.75078,3.050927 2.32926,3.946315 1.49372,0.434239 3.73475,0.789525 4.98009,0.789525 1.49154,0 3.16055,0.481083 4.89081,1.409759 3.45685,1.855394 11.13676,7.197554 13.85402,9.636889 1.93983,1.741429 2.15851,2.175611 2.1599,4.288561 0.002,2.77872 -2.74676,10.23841 -5.3894,14.62695 -0.98402,1.63414 -1.78913,3.17702 -1.78913,3.42865 0,0.75954 -1.18557,2.63956 -2.9477,4.67435 -0.91634,1.05813 -1.66608,2.13944 -1.66608,2.40292 0,0.26346 -0.87208,0.46699 -1.93794,0.45228 -1.51736,-0.0209 -2.06152,-0.28857 -2.50727,-1.23313 -0.44524,-0.94345 -0.41122,-1.3376 0.15607,-1.80843 0.39898,-0.33111 0.61007,-0.71737 0.4691,-0.85835 -0.14098,-0.14098 -0.60793,0.0356 -1.03767,0.39215 -0.63162,0.5242 -0.78135,0.52127 -0.78135,-0.0153 0,-1.3243 1.81327,-4.5621 2.56321,-4.57687 1.97641,-0.0389 4.21196,-2.1645 5.67874,-5.39938 0.82403,-1.81739 1.49825,-3.74429 1.49825,-4.28201 0,-0.53772 0.3819,-2.16018 0.84868,-3.60546 0.46677,-1.4453 0.72728,-2.74921 0.57889,-2.8976 -0.14839,-0.14838 -0.85937,-9.3e-4 -1.57995,0.32715 -1.09841,0.50047 -1.5855,0.42693 -3.01395,-0.45504 -0.93877,-0.57964 -2.84275,-1.12678 -4.24045,-1.21856 l -2.53669,-0.16656 -2.0159,5.12643 c -1.59759,4.06267 -2.10082,6.15644 -2.42516,10.09033 -0.42202,5.11881 -0.813,6.3215 -2.85171,8.77262 -1.10729,1.33128 -1.17143,1.75251 -0.90258,5.92842 0.26009,4.03977 0.15689,4.81017 -1.01838,7.60249 -0.71928,1.70896 -1.83601,3.99627 -2.48159,5.08292 -0.64559,1.08664 -1.750508,3.33336 -2.455388,4.9927 -0.70489,1.65932 -1.476189,2.968 -1.714005,2.90815 -0.68422,-0.1722 -3.279257,2.53321 -3.924823,4.09176 -1.319254,3.18495 -6.794201,4.1458 -8.093911,1.42045 l -0.667491,-1.39964 -2.715986,1.8033 c -1.493782,0.99183 -3.53689,1.93653 -4.54024,2.09935 -1.573789,0.25539 -1.946583,0.10938 -2.715068,-1.06349 -0.866885,-1.32303 -0.850599,-1.43813 0.606574,-4.28819 0.928583,-1.81622 2.034128,-3.18625 2.910468,-3.6068 2.177464,-1.04494 7.013138,-7.18541 7.013138,-8.90548 0,-0.79102 -0.131932,-1.4382 -0.293189,-1.4382 -1.085338,0 -5.250938,3.12182 -6.828269,5.11729 -1.525532,1.92994 -2.057623,2.29666 -2.723185,1.87684 -0.646661,-0.4079 -1.458448,-0.0253 -3.719619,1.75295 -6.280535,4.93927 -6.109191,4.73019 -7.131841,8.70261 -0.739929,2.87416 -1.418962,4.22523 -2.968444,5.90621 -1.104975,1.19877 -3.060908,4.33518 -4.346515,6.96983 -2.04275,4.1863 -2.302692,5.08904 -2.061703,7.16 l 0.275753,2.36975 -2.346553,0.32163 c -1.290603,0.17689 -4.203031,0.32162 -6.472055,0.32162 h -4.125492 z"
       id="path138"
       inkscape:connector-curvature="0" />
  </g>
</svg>
